# xmcd CD database file
#
# Track frame offsets:
#	150
#	16865
#	27585
#	40947
#	67825
#	84515
#	91592
#	128870
#	139590
#
# Disc length: 2586 seconds
#
# Revision: 0
# Processed by: cddbd v1.5.2PL0 Copyright (c) Steve Scherf et al.
# Submitted via: CDex 1.70beta2
#
DISCID=660a1809
DTITLE=Rich Woodson's ellipsis - Control and Resistance
DYEAR=2000
DGENRE=Jazz
TTITLE0=The Gift of Pain
TTITLE1=Abduction Fantasy
TTITLE2=Only Gravity is Fair
TTITLE3=The Pornographic Subset
TTITLE4=The Gist Does Not Exist
TTITLE5=DP in Mono
TTITLE6=I Remember the Acid Bath
TTITLE7=Vulgarity in Lieu of Nothing Else
TTITLE8=Teargash
EXTD=YEAR: 2000
EXTT0=
EXTT1=
EXTT2=
EXTT3=
EXTT4=
EXTT5=
EXTT6=
EXTT7=
EXTT8=
PLAYORDER=
